<?xml version="1.0" encoding="UTF-8"?>
<svg version="1.1" xmlns="http://www.w3.org/2000/svg" width="1000" height="249">
<path d="M0 0 C0.93027008 -0.0080365 1.86054016 -0.016073 2.81900024 -0.02435303 C40.94267595 -0.27383208 78.85879443 9.51609895 107.0703125 36.47265625 C119.43773415 49.97699334 125.44160329 66.21343904 124.80297852 84.49975586 C123.78560993 102.67258289 116.71659214 119.10130078 103.4140625 131.70703125 C85.84250267 146.83093978 62.97271452 155.18958075 39.875 156.375 C38.52341797 156.45427734 38.52341797 156.45427734 37.14453125 156.53515625 C19.82180279 157.05058025 3.1275999 153.29338818 -13.31347656 148.23828125 C-28.52124956 143.56871844 -43.19251699 139.37205194 -59.125 138.375 C-63.59761468 149.09729502 -65.1993322 159.99313844 -61.5625 171.25 C-55.83813537 184.6664796 -44.62323945 192.3896374 -31.56640625 198.0625 C-2.02562237 209.32890566 31.25934692 207.24688436 60.875 197.375 C65.57097904 196.99008369 67.99965683 196.97711674 72.3125 198.9375 C74.875 201.375 74.875 201.375 75.9375 204.75 C75.84889464 209.8891109 74.72904649 212.47984383 71.11328125 216.17578125 C56.22675755 229.13978706 36.23994458 236.50350047 17.3125 241.125 C16.09167725 241.42337769 16.09167725 241.42337769 14.84619141 241.7277832 C1.14546184 244.87795095 -12.31978403 245.75124324 -26.3125 245.6875 C-27.12448853 245.68600952 -27.93647705 245.68451904 -28.77307129 245.6829834 C-41.12406532 245.64228119 -53.02414775 245.01492982 -65.125 242.375 C-66.20370361 242.1581958 -66.20370361 242.1581958 -67.30419922 241.93701172 C-102.63151418 234.83062602 -133.77787816 217.35382837 -154.3125 187.125 C-165.92763959 169.44929871 -172.56410187 149.36698553 -172.4375 128.125 C-172.43186035 127.12138428 -172.4262207 126.11776855 -172.42041016 125.08374023 C-171.9455127 95.80231547 -157.64298086 70.09028151 -137.5625 49.5 C-111.5807504 24.39774545 -79.16027703 10.49172102 -44.125 3.375 C-43.28614258 3.19565918 -42.44728516 3.01631836 -41.58300781 2.83154297 C-27.86128109 0.00582133 -13.95037754 0.06728408 0 0 Z " fill="#89C43F" transform="translate(178.125,1.625)"/>
<path d="M0 0 C-0.28875 0.76441406 -0.5775 1.52882812 -0.875 2.31640625 C-4.81531481 13.68585626 -6.14407675 25.18771075 -1.3125 36.51171875 C6.14444994 50.64885301 19.81572065 58.30833776 34.59765625 63.1875 C62.69021009 71.22238396 92.43001012 69.18999663 120 60 C124.69597904 59.61508369 127.12465683 59.60211674 131.4375 61.5625 C134 64 134 64 135.0625 67.375 C134.97389464 72.5141109 133.85404649 75.10484383 130.23828125 78.80078125 C115.35175755 91.76478706 95.36494458 99.12850047 76.4375 103.75 C75.62361816 103.94891846 74.80973633 104.14783691 73.97119141 104.3527832 C60.27046184 107.50295095 46.80521597 108.37624324 32.8125 108.3125 C32.00051147 108.31100952 31.18852295 108.30951904 30.35192871 108.3079834 C18.00093468 108.26728119 6.10085225 107.63992982 -6 105 C-6.71913574 104.85546387 -7.43827148 104.71092773 -8.17919922 104.56201172 C-25.16822135 101.14452743 -40.76989117 95.22917171 -56 87 C-57.34964844 86.29810547 -57.34964844 86.29810547 -58.7265625 85.58203125 C-66.54524934 80.14119247 -69.95736408 69.40274974 -71.6875 60.4375 C-72.92088027 46.87031703 -70.22627532 35.34535181 -61.95703125 24.26171875 C-50.97033875 11.44715175 -36.41536686 4.26843857 -20 1 C-18.2984375 0.6596875 -18.2984375 0.6596875 -16.5625 0.3125 C-11.04522417 -0.17147156 -5.53447477 -0.07490267 0 0 Z " fill="#008DD1" transform="translate(119,139)"/>
<path d="M0 0 C0.93027008 -0.0080365 1.86054016 -0.016073 2.81900024 -0.02435303 C37.23433998 -0.24956495 71.52269225 7.41270584 98.875 29.375 C96.875 30.375 96.875 30.375 93.62890625 29.3359375 C92.2302269 28.8113902 90.83321023 28.28239717 89.4375 27.75 C63.49127561 18.28037352 36.67854569 14.14548668 9.125 14.125 C8.30652588 14.12432526 7.48805176 14.12365051 6.64477539 14.12295532 C-27.30728112 14.16726294 -60.13856606 21.11519659 -90.125 37.375 C-90.72505859 37.69049805 -91.32511719 38.00599609 -91.94335938 38.33105469 C-101.51956396 43.36978829 -109.85647829 49.43311553 -118.125 56.375 C-119.50365234 57.52162109 -119.50365234 57.52162109 -120.91015625 58.69140625 C-142.83648309 77.63548153 -159.49947077 106.27230274 -162.125 135.375 C-163.73452744 161.50413696 -153.82128972 184.83454736 -137.125 204.375 C-134.54341035 207.14039215 -131.90261805 209.80686711 -129.125 212.375 C-132.87318838 212.375 -133.86218537 211.04899196 -136.45239258 208.51611328 C-137.00435303 207.9539209 -137.55631348 207.39172852 -138.125 206.8125 C-138.69951904 206.22968262 -139.27403809 205.64686523 -139.8659668 205.04638672 C-161.13803656 182.95018189 -172.71891147 155.56235012 -172.47631836 124.81054688 C-171.75084505 94.33561236 -156.32118034 67.62368975 -134.79296875 46.82421875 C-109.185583 23.31641368 -77.86287784 10.22818013 -44.125 3.375 C-43.28614258 3.19565918 -42.44728516 3.01631836 -41.58300781 2.83154297 C-27.86128109 0.00582133 -13.95037754 0.06728408 0 0 Z " fill="#00A94E" transform="translate(178.125,1.625)"/>
<path d="M0 0 C1.5 1.6875 1.5 1.6875 1.5 4.6875 C2.25925781 4.33816406 3.01851562 3.98882812 3.80078125 3.62890625 C4.79464844 3.17386719 5.78851562 2.71882813 6.8125 2.25 C7.79863281 1.79753906 8.78476562 1.34507813 9.80078125 0.87890625 C14.81605934 -1.33478379 19.06459576 -2.0093467 24.5 -1.3125 C27.875 0.5625 27.875 0.5625 30.5 2.6875 C31.49 3.3475 32.48 4.0075 33.5 4.6875 C34.551875 4.06875 35.60375 3.45 36.6875 2.8125 C43.12888033 -0.80596465 48.05757713 -2.0519715 55.5 -1.3125 C59.57629566 -0.05255407 60.99108198 0.81564207 63.1418457 4.50024414 C65.34039852 9.98925855 64.86873747 15.80380527 64.79296875 21.62109375 C64.78872391 22.85416763 64.78447906 24.08724152 64.78010559 25.35768127 C64.76336737 29.28034674 64.72572265 33.20249086 64.6875 37.125 C64.67075097 39.79100811 64.65875969 42.45701132 64.64648438 45.12304688 C64.61347951 51.64473089 64.56172939 58.16602717 64.5 64.6875 C58.89 64.6875 53.28 64.6875 47.5 64.6875 C47.470271 62.68200073 47.470271 62.68200073 47.43994141 60.63598633 C47.36379183 55.66916267 47.27508852 50.70262838 47.18261719 45.73608398 C47.14436615 43.58770466 47.10950653 41.43926213 47.078125 39.29077148 C47.03239063 36.20012854 46.97440944 33.10991919 46.9140625 30.01953125 C46.90251129 29.06101761 46.89096008 28.10250397 46.87905884 27.11494446 C46.77863799 22.5635591 46.66688114 18.81217726 44.5 14.6875 C39.1913151 15.26924845 39.1913151 15.26924845 34.5 17.6875 C34.02482134 19.77997425 34.02482134 19.77997425 34.06762695 22.22900391 C34.04783279 23.16982819 34.02803864 24.11065247 34.00764465 25.07998657 C33.99805977 26.60660416 33.99805977 26.60660416 33.98828125 28.1640625 C33.97033005 29.20444672 33.95237885 30.24483093 33.93388367 31.31674194 C33.87958318 34.64861971 33.84582147 37.98035266 33.8125 41.3125 C33.77934439 43.56772858 33.74485639 45.82293799 33.70898438 48.078125 C33.62384527 53.61447913 33.5571283 59.15078883 33.5 64.6875 C27.89 64.6875 22.28 64.6875 16.5 64.6875 C16.48018066 63.27944092 16.46036133 61.87138184 16.43994141 60.4206543 C16.36395705 55.20416156 16.27522856 49.98795039 16.18261719 44.77172852 C16.14429779 42.51267041 16.10945019 40.25355068 16.078125 37.99438477 C16.03253893 34.74993843 15.97453362 31.50591752 15.9140625 28.26171875 C15.90251129 27.24913498 15.89096008 26.23655121 15.87905884 25.19328308 C15.85918915 24.25253433 15.83931946 23.31178558 15.81884766 22.3425293 C15.80552399 21.51424118 15.79220032 20.68595306 15.7784729 19.83256531 C15.62261241 17.39153867 15.62261241 17.39153867 13.5 14.6875 C8.1913151 15.26924845 8.1913151 15.26924845 3.5 17.6875 C3.02482134 19.77997425 3.02482134 19.77997425 3.06762695 22.22900391 C3.04783279 23.16982819 3.02803864 24.11065247 3.00764465 25.07998657 C2.99805977 26.60660416 2.99805977 26.60660416 2.98828125 28.1640625 C2.97033005 29.20444672 2.95237885 30.24483093 2.93388367 31.31674194 C2.87958318 34.64861971 2.84582147 37.98035266 2.8125 41.3125 C2.77934439 43.56772858 2.74485639 45.82293799 2.70898438 48.078125 C2.62384527 53.61447913 2.5571283 59.15078883 2.5 64.6875 C-3.11 64.6875 -8.72 64.6875 -14.5 64.6875 C-14.5 43.2375 -14.5 21.7875 -14.5 -0.3125 C-9.46452838 -1.57136791 -4.73498368 -2.48586643 0 0 Z " fill="#000000" transform="translate(893.5,86.3125)"/>
<path d="M0 0 C0.845625 -0.03738281 1.69125 -0.07476562 2.5625 -0.11328125 C5 0.3125 5 0.3125 7.265625 1.66015625 C10.0095535 5.85638925 9.67806559 10.15134163 9.75 15.0625 C9.77964844 16.04605469 9.80929687 17.02960938 9.83984375 18.04296875 C9.91042411 20.46622776 9.96317701 22.88853154 10 25.3125 C10.66499512 24.92835937 11.32999023 24.54421875 12.01513672 24.1484375 C18.10147235 20.70291416 23.02733017 19.22679017 30 20.3125 C35.2231645 22.05355483 37.36565429 24.53165038 40 29.3125 C41.01322855 32.4602651 41.12137375 35.33552325 41.11352539 38.63183594 C41.11344986 39.69263367 41.11337433 40.7534314 41.11329651 41.84637451 C41.10813522 42.98503967 41.10297394 44.12370483 41.09765625 45.296875 C41.0962413 46.46760559 41.09482635 47.63833618 41.09336853 48.84454346 C41.0877709 52.58388829 41.0752188 56.32317326 41.0625 60.0625 C41.0574847 62.59765539 41.05292184 65.13281171 41.04882812 67.66796875 C41.03780223 73.88283557 41.02053919 80.09765763 41 86.3125 C35.06 86.3125 29.12 86.3125 23 86.3125 C22.98541748 84.86891113 22.97083496 83.42532227 22.95581055 81.93798828 C22.89796316 76.5965868 22.82072993 71.25561292 22.73754883 65.91455078 C22.7042355 63.6001681 22.67622378 61.28570292 22.65356445 58.97119141 C22.62013623 55.64970644 22.5678265 52.32898198 22.51171875 49.0078125 C22.50532883 47.96819366 22.4989389 46.92857483 22.49235535 45.85745239 C22.47256119 44.89660736 22.45276703 43.93576233 22.43237305 42.94580078 C22.42126999 42.09752716 22.41016693 41.24925354 22.39872742 40.37527466 C22.26714737 39.69455902 22.13556732 39.01384338 22 38.3125 C19.10420618 35.94027005 19.10420618 35.94027005 15.4375 36.5625 C11.95407388 36.9983444 11.95407388 36.9983444 10 39.3125 C9.66983494 41.41230044 9.66983494 41.41230044 9.68115234 43.85400391 C9.66128265 44.79482819 9.64141296 45.73565247 9.62094116 46.70498657 C9.60361435 48.23160416 9.60361435 48.23160416 9.5859375 49.7890625 C9.56657135 50.82944672 9.5472052 51.86983093 9.5272522 52.94174194 C9.46734273 56.2735772 9.42102548 59.60544679 9.375 62.9375 C9.3368307 65.19272363 9.2977796 67.44793252 9.2578125 69.703125 C9.16163181 75.239464 9.07764284 80.77587124 9 86.3125 C3.06 86.3125 -2.88 86.3125 -9 86.3125 C-9 58.2625 -9 30.2125 -9 1.3125 C-5.78028882 0.5075722 -3.26711634 0.09462685 0 0 Z " fill="#000000" transform="translate(436,64.6875)"/>
<path d="M0 0 C5.35910726 4.66067724 7.8504139 11.13671266 9 18 C9.2362357 21.5603583 9.23088424 25.12002192 9.25 28.6875 C9.270625 29.63044922 9.29125 30.57339844 9.3125 31.54492188 C9.36027334 40.23369825 7.92797557 48.5427489 2.44921875 55.53515625 C-3.02696779 61.07038523 -10.30241821 63.08995928 -17.875 63.375 C-25.7404082 63.1999971 -30.39990652 60.96189445 -35.8125 55.3125 C-43.24020026 46.20976027 -43.56187117 34.2806442 -43 23 C-42.07256822 14.84094825 -39.91915143 7.44075725 -33.8125 1.6875 C-24.23338804 -5.76066545 -10.21434496 -6.77460662 0 0 Z M-23 12 C-27.09540855 21.1760333 -26.49143246 35.74770399 -23 45 C-21.41473019 47.58709872 -21.41473019 47.58709872 -19 49 C-15.85477278 49.31452272 -13.84083641 49.42041821 -11 48 C-9.0410023 43.365125 -8.5156365 38.78912999 -8.25 33.8125 C-8.20979736 33.06653564 -8.16959473 32.32057129 -8.12817383 31.55200195 C-7.83779891 24.48773655 -7.74017127 17.35078054 -11.8125 11.3125 C-15.83667555 8.89799467 -19.16175337 9.52698337 -23 12 Z " fill="#000000" transform="translate(860,89)"/>
<path d="M0 0 C5.56869118 4.09064604 7.98218976 9.42110577 9.5859375 16.046875 C11.44468781 28.914038 11.12504954 41.98051998 5.52734375 53.84765625 C0.46722384 59.42676282 -6.12781927 63.11840974 -13.64453125 63.7734375 C-22.12532255 63.98216164 -27.12273744 62.63395346 -33.66015625 57.28515625 C-42.0482892 47.03299375 -42.94683609 34.3689902 -41.91015625 21.53515625 C-40.38085349 13.16519985 -37.76321543 5.89899295 -30.91015625 0.53515625 C-21.4260963 -5.32559207 -9.62798474 -5.6020203 0 0 Z M-21.91015625 12.53515625 C-23.74367381 18.45121829 -24.24741353 23.8656432 -24.22265625 30.03515625 C-24.23876953 30.83824219 -24.25488281 31.64132813 -24.27148438 32.46875 C-24.27608625 38.14746653 -23.2651911 42.35522558 -20.91015625 47.53515625 C-18.96781536 49.92300901 -18.96781536 49.92300901 -15.41015625 49.72265625 C-12.06050922 49.77646862 -12.06050922 49.77646862 -9.91015625 48.53515625 C-7.45349782 42.2936813 -7.57745783 36.10985843 -7.59765625 29.47265625 C-7.58154297 28.40982422 -7.56542969 27.34699219 -7.54882812 26.25195312 C-7.5241182 18.4467944 -7.5241182 18.4467944 -10.91015625 11.53515625 C-14.95025516 10.35985475 -18.64700176 9.51371691 -21.91015625 12.53515625 Z " fill="#000000" transform="translate(556.91015625,88.46484375)"/>
<path d="M0 0 C4.98177721 3.27031326 7.92071877 8.3643128 9.42333984 14.04443359 C10.18635412 18.53087517 9.98627829 23.07405069 9.91015625 27.609375 C9.86890625 31.095 9.82765625 34.580625 9.78515625 38.171875 C0.21515625 38.171875 -9.35484375 38.171875 -19.21484375 38.171875 C-17.21951756 46.58606821 -17.21951756 46.58606821 -13.96484375 49.234375 C-9.98030723 50.59273972 -6.30907923 50.69543387 -2.21484375 49.671875 C0.77958935 48.92326672 3.71506146 49.11283472 6.78515625 49.171875 C8.7830106 53.2924496 8.9635114 56.62381865 8.78515625 61.171875 C-1.23571344 65.42315305 -11.58029232 67.21824961 -22.24609375 64.359375 C-28.62783716 61.59138991 -32.32885213 57.43914394 -35.21484375 51.171875 C-39.7415537 39.02032661 -39.80201511 25.31842988 -35.21484375 13.171875 C-31.68293196 6.22265623 -27.63591289 2.22818623 -20.52734375 -1.078125 C-13.7673888 -2.60868084 -6.45438136 -2.80971016 0 0 Z M-18.21484375 14.171875 C-19.30360138 17.08352398 -19.32270865 19.83706166 -19.27734375 22.921875 C-19.25671875 24.324375 -19.23609375 25.726875 -19.21484375 27.171875 C-12.77984375 26.676875 -12.77984375 26.676875 -6.21484375 26.171875 C-6.17359375 24.769375 -6.13234375 23.366875 -6.08984375 21.921875 C-6.06664062 21.13296875 -6.0434375 20.3440625 -6.01953125 19.53125 C-6.23806957 16.8913071 -6.71625278 15.35428904 -8.21484375 13.171875 C-13.49074857 11.81318111 -13.49074857 11.81318111 -18.21484375 14.171875 Z " fill="#000000" transform="translate(367.21484375,86.828125)"/>
<path d="M0 0 C4.84301937 3.57656394 7.15181858 8.46031509 8.61328125 14.19140625 C8.95786482 18.2035181 8.89819154 22.16856247 8.80078125 26.19140625 C8.73890625 29.82140625 8.67703125 33.45140625 8.61328125 37.19140625 C-0.95671875 37.19140625 -10.52671875 37.19140625 -20.38671875 37.19140625 C-18.35493143 45.54783139 -18.35493143 45.54783139 -15.28125 48.2734375 C-11.10912966 49.59657958 -7.39366891 49.26414529 -3.07421875 48.87890625 C-2.23826172 48.81767578 -1.40230469 48.75644531 -0.54101562 48.69335938 C1.51157301 48.54088136 3.56263948 48.368149 5.61328125 48.19140625 C7.45998542 52.4010193 7.79413612 55.57960697 7.61328125 60.19140625 C-2.40050229 64.36847797 -13.41287854 66.48352549 -24.01171875 63.00390625 C-27.59087327 61.08176771 -29.78441489 59.29971364 -32.38671875 56.19140625 C-33.08796875 55.38703125 -33.78921875 54.58265625 -34.51171875 53.75390625 C-40.81484186 43.812395 -40.42279853 29.66766724 -38.26171875 18.56640625 C-36.37796377 11.12866947 -33.36494387 5.61121416 -27.38671875 0.75390625 C-18.80055113 -3.71805605 -8.66472186 -5.14860285 0 0 Z M-18.26171875 12.37890625 C-20.9669391 16.73731682 -20.46979262 21.20697407 -20.38671875 26.19140625 C-13.95171875 25.69640625 -13.95171875 25.69640625 -7.38671875 25.19140625 C-7.34546875 23.78890625 -7.30421875 22.38640625 -7.26171875 20.94140625 C-7.23851562 20.1525 -7.2153125 19.36359375 -7.19140625 18.55078125 C-7.4099821 15.91038494 -7.89027417 14.37553734 -9.38671875 12.19140625 C-13.97610153 10.83643013 -13.97610153 10.83643013 -18.26171875 12.37890625 Z " fill="#000000" transform="translate(756.38671875,87.80859375)"/>
<path d="M0 0 C5.80580659 4.2935965 7.64034497 8.7334278 9.18359375 15.65625 C10.12772639 22.48076781 10.09078635 29.37209327 9.6796875 36.2421875 C7.84749104 38.07438396 4.92255009 37.48120078 2.45703125 37.55859375 C1.19697266 37.60048828 -0.06308594 37.64238281 -1.36132812 37.68554688 C-2.70181986 37.72536346 -4.0423147 37.76507564 -5.3828125 37.8046875 C-6.72722773 37.84786792 -8.0716291 37.89148206 -9.41601562 37.93554688 C-12.7173359 38.04204108 -16.01873486 38.1440521 -19.3203125 38.2421875 C-18.92277429 39.70585092 -18.50149866 41.163081 -18.0703125 42.6171875 C-17.83828125 43.42929688 -17.60625 44.24140625 -17.3671875 45.078125 C-16.48653777 47.36583172 -16.48653777 47.36583172 -14.40234375 48.51953125 C-8.82624298 50.45495084 -2.41010849 48.97747252 3.32421875 48.265625 C4.49017578 48.25402344 4.49017578 48.25402344 5.6796875 48.2421875 C7.6796875 50.2421875 7.6796875 50.2421875 7.875 52.625 C7.85179687 53.52992188 7.82859375 54.43484375 7.8046875 55.3671875 C7.78664063 56.27726562 7.76859375 57.18734375 7.75 58.125 C7.72679687 58.82367188 7.70359375 59.52234375 7.6796875 60.2421875 C6.43077136 60.72417213 5.18049942 61.20264427 3.9296875 61.6796875 C3.23359375 61.94652344 2.5375 62.21335937 1.8203125 62.48828125 C-6.15380061 65.2966824 -16.43637208 65.85283948 -24.3828125 62.6796875 C-31.66739755 58.76988197 -34.9314597 52.91166229 -37.3203125 45.2421875 C-40.16969509 35.30355098 -39.96548209 20.94699912 -35.7109375 11.5390625 C-32.02702612 5.45439989 -27.67367988 -0.35359668 -20.5859375 -2.390625 C-13.38162822 -3.55821995 -6.41676261 -3.8607078 0 0 Z M-18.3203125 12.2421875 C-19.01276675 14.18845146 -19.01276675 14.18845146 -19.4453125 16.4921875 C-19.61289062 17.26046875 -19.78046875 18.02875 -19.953125 18.8203125 C-20.44522905 21.65784648 -20.44522905 21.65784648 -20.3203125 26.2421875 C-15.7003125 25.9121875 -11.0803125 25.5821875 -6.3203125 25.2421875 C-6.4234375 23.6746875 -6.5265625 22.1071875 -6.6328125 20.4921875 C-6.71982422 19.16960937 -6.71982422 19.16960937 -6.80859375 17.8203125 C-7.3955503 14.86312684 -8.2239654 13.39317871 -10.3203125 11.2421875 C-13.44654505 10.92318418 -15.49147503 10.82776876 -18.3203125 12.2421875 Z " fill="#000000" transform="translate(667.3203125,87.7578125)"/>
<path d="M0 0 C0 5.28 0 10.56 0 16 C4.29 16 8.58 16 13 16 C13 20.29 13 24.58 13 29 C8.71 29 4.42 29 0 29 C0.11811006 33.80567423 0.24234823 38.61113568 0.37231445 43.41650391 C0.41567538 45.05187653 0.45734961 46.68729477 0.49731445 48.32275391 C0.55498912 50.67103841 0.61869129 53.01909304 0.68359375 55.3671875 C0.70030624 56.10057343 0.71701874 56.83395935 0.73423767 57.58956909 C0.78637962 61.42202308 0.78637962 61.42202308 2 65 C5.3 65 8.6 65 12 65 C12.495 70.94 12.495 70.94 13 77 C5.12694161 80.09759674 -2.20865624 81.56807614 -10.4375 78.875 C-14.65517163 75.78889881 -17.00387095 72.09686848 -18 67 C-18.08378506 64.09040622 -18.11617895 61.20578759 -18.09765625 58.296875 C-18.0962413 57.45908508 -18.09482635 56.62129517 -18.09336853 55.75811768 C-18.08778197 53.08870843 -18.07523194 50.4193838 -18.0625 47.75 C-18.05748326 45.93750121 -18.05292066 44.12500111 -18.04882812 42.3125 C-18.03781694 37.87496752 -18.02056155 33.43749809 -18 29 C-20.31 29 -22.62 29 -25 29 C-25 24.71 -25 20.42 -25 16 C-22.36 16 -19.72 16 -17 16 C-17.04125 14.783125 -17.0825 13.56625 -17.125 12.3125 C-17.09982165 8.74976329 -16.94241852 6.09021129 -15 3 C-10.05043917 -0.50090888 -5.83065155 -0.26502962 0 0 Z " fill="#000000" transform="translate(407,72)"/>
<path d="M0 0 C2.1346875 0.0309375 2.1346875 0.0309375 4.3125 0.0625 C4.3125 5.3425 4.3125 10.6225 4.3125 16.0625 C8.2725 16.0625 12.2325 16.0625 16.3125 16.0625 C16.3125 20.3525 16.3125 24.6425 16.3125 29.0625 C12.3525 29.0625 8.3925 29.0625 4.3125 29.0625 C4.43044962 34.02889957 4.55467518 38.99508651 4.68481445 43.96118164 C4.72822439 45.65189299 4.76989489 47.34264991 4.80981445 49.03344727 C4.86737094 51.45863606 4.93110649 53.88359415 4.99609375 56.30859375 C5.01280624 57.06901474 5.02951874 57.82943573 5.04673767 58.61289978 C4.83341268 62.13332031 4.83341268 62.13332031 6.3125 65.0625 C7.83178038 65.13429964 9.35417482 65.14642007 10.875 65.125 C11.70128906 65.11597656 12.52757812 65.10695313 13.37890625 65.09765625 C14.01699219 65.08605469 14.65507813 65.07445312 15.3125 65.0625 C16.48496771 69.16152098 16.38326062 72.81686258 16.3125 77.0625 C9.17441371 80.02348394 1.75925391 81.72623574 -5.8359375 79.40625 C-9.77238773 77.47954862 -11.5167754 75.11051724 -13.10513306 71.11886597 C-14.18106403 67.31970144 -14.05284181 63.54964304 -13.98046875 59.62890625 C-13.97622391 58.75096909 -13.97197906 57.87303192 -13.96760559 56.9684906 C-13.9509229 54.1870042 -13.91329085 51.40626436 -13.875 48.625 C-13.85993968 46.72982823 -13.84625364 44.83464502 -13.83398438 42.93945312 C-13.8010536 38.31351803 -13.74934428 33.68813523 -13.6875 29.0625 C-15.9975 29.0625 -18.3075 29.0625 -20.6875 29.0625 C-20.6875 24.7725 -20.6875 20.4825 -20.6875 16.0625 C-18.0475 16.0625 -15.4075 16.0625 -12.6875 16.0625 C-12.77451172 14.94101563 -12.77451172 14.94101563 -12.86328125 13.796875 C-13.23494771 5.68392713 -13.23494771 5.68392713 -10.375 2.4375 C-6.71986652 0.56743171 -4.05291565 -0.05873791 0 0 Z " fill="#000000" transform="translate(607.6875,71.9375)"/>
<path d="M0 0 C0.28999065 8.55472404 0.28999065 8.55472404 -2 13 C-2.495 13.495 -2.495 13.495 -3 14 C-5.49358313 13.90873545 -7.95233224 13.76213952 -10.4375 13.5625 C-15.21361304 13.16144922 -15.21361304 13.16144922 -20 13 C-20.80623379 18.71515727 -21.2108492 24.29265144 -21.25 30.0625 C-21.270625 30.82626953 -21.29125 31.59003906 -21.3125 32.37695312 C-21.34877076 37.67701795 -20.47042591 41.29299918 -18 46 C-16.20329726 48.21743605 -16.20329726 48.21743605 -13.7578125 48.23046875 C-12.88898437 48.21628906 -12.02015625 48.20210937 -11.125 48.1875 C-10.26132812 48.18105469 -9.39765625 48.17460937 -8.5078125 48.16796875 C-6.20807774 48.01393667 -4.20716511 47.64161776 -2 47 C-0.54815522 51.53701494 0.23509196 55.18061476 0 60 C-8.05726794 63.99298234 -15.7282174 65.68637055 -24.5859375 63.3046875 C-31.06385243 60.74365136 -34.07505462 57.13694803 -37.6875 51.25 C-42.65062209 38.96036434 -42.5753419 24.33085632 -38.2578125 11.85546875 C-35.43761124 5.32907379 -30.50080391 0.82996568 -24.25 -2.4375 C-15.67682197 -3.92131927 -8.02046424 -3.40262119 0 0 Z " fill="#000000" transform="translate(813,88)"/>
<path d="M0 0 C0.75539063 -0.00515625 1.51078125 -0.0103125 2.2890625 -0.015625 C4.375 0.25 4.375 0.25 7.375 2.25 C8.48503872 5.58011615 8.52664528 8.124131 8.56445312 11.63330078 C8.58117065 12.95121613 8.59788818 14.26913147 8.6151123 15.62698364 C8.62179428 16.33073246 8.62847626 17.03448128 8.63536072 17.75955582 C8.65640252 19.96127168 8.68342143 22.16284182 8.71203613 24.36447144 C8.78183757 29.82994335 8.84136469 35.29551842 8.90106201 40.7611084 C8.95191554 45.38344485 9.00670139 50.00570111 9.06687927 54.62792587 C9.09352837 56.80222979 9.11429364 58.97654092 9.1348877 61.15090942 C9.15160522 62.46252045 9.16832275 63.77413147 9.18554688 65.12548828 C9.19807495 66.28670197 9.21060303 67.44791565 9.22351074 68.64431763 C9.08107902 71.17770378 9.08107902 71.17770378 10.375 72.25 C11.53 72.25 12.685 72.25 13.875 72.25 C15.03 72.25 16.185 72.25 17.375 72.25 C18.375 73.25 18.375 73.25 18.47265625 75.75390625 C18.46105469 76.76324219 18.44945312 77.77257812 18.4375 78.8125 C18.42847656 79.82441406 18.41945313 80.83632812 18.41015625 81.87890625 C18.39855469 82.66136719 18.38695312 83.44382812 18.375 84.25 C12.40752736 87.43265207 7.10056444 88.12036716 0.375 87.25 C-2.71045727 86.31094779 -4.01866665 85.36764585 -6.625 83.25 C-9.2796072 78.18663524 -9.9952857 74.45571174 -9.96557617 68.66235352 C-9.96601425 67.93956711 -9.96645233 67.2167807 -9.96690369 66.47209167 C-9.96483076 64.1074118 -9.94157197 61.74346068 -9.91796875 59.37890625 C-9.91236744 57.72981656 -9.90809987 56.08072185 -9.90510559 54.43162537 C-9.89369886 50.10952766 -9.86426807 45.78773657 -9.83099365 41.46575928 C-9.80020239 37.04817857 -9.78658097 32.63054791 -9.77148438 28.21289062 C-9.73939395 19.55845368 -9.68824868 10.90426508 -9.625 2.25 C-6.25240873 0.8404962 -3.67209454 -0.02523776 0 0 Z " fill="#000000" transform="translate(695.625,64.75)"/>
<path d="M0 0 C1.22754501 -0.00151062 1.22754501 -0.00151062 2.47988892 -0.00305176 C22.61833654 0.0136527 41.82645869 2.38754717 61.375 7.25 C61.375 7.58 61.375 7.91 61.375 8.25 C60.77478027 8.21970703 60.17456055 8.18941406 59.55615234 8.15820312 C-10.46891051 4.73270616 -84.96101674 11.5012902 -139.43823242 60.5078125 C-141.51748897 62.40389403 -143.57660861 64.3206534 -145.625 66.25 C-145.625 61.89530877 -142.99434367 59.74731708 -140.25 56.625 C-139.42471802 55.68068115 -139.42471802 55.68068115 -138.58276367 54.71728516 C-119.62403283 33.32668241 -94.41144338 19.3760974 -67.625 10.25 C-66.89458496 9.99879395 -66.16416992 9.74758789 -65.41162109 9.48876953 C-44.269959 2.36242215 -22.19461074 0.01896665 0 0 Z " fill="#FCFEFC" transform="translate(185.625,14.75)"/>
<path d="M0 0 C1.625 1.125 1.625 1.125 2.625 3.125 C2.71628293 5.06544277 2.74252248 7.0090756 2.73852539 8.95166016 C2.73844986 10.17277496 2.73837433 11.39388977 2.73829651 12.65200806 C2.73318952 13.98935995 2.72797352 15.32671143 2.72265625 16.6640625 C2.7207914 18.02883859 2.71936781 19.39361534 2.71836853 20.75839233 C2.71454863 24.35215093 2.70472283 27.94586917 2.69366455 31.53961182 C2.68343911 35.20608982 2.67886848 38.87257435 2.67382812 42.5390625 C2.6631001 49.73439553 2.64550756 56.92968697 2.625 64.125 C-3.315 64.125 -9.255 64.125 -15.375 64.125 C-15.375 43.335 -15.375 22.545 -15.375 1.125 C-9.83017491 -0.72327503 -5.59352139 -2.06077104 0 0 Z " fill="#000000" transform="translate(503.375,86.875)"/>
<path d="M0 0 C0.33 0 0.66 0 1 0 C0.6171776 15.41730208 -6.94471877 29.40409587 -17.328125 40.484375 C-37.14769559 59.14490637 -65.16222845 67.41949297 -92.01171875 67.2265625 C-97.23180087 66.93002502 -102.38088919 66.31216703 -107.5625 65.625 C-108.52704102 65.49899414 -109.49158203 65.37298828 -110.48535156 65.24316406 C-111.85578613 65.04932129 -111.85578613 65.04932129 -113.25390625 64.8515625 C-114.07189697 64.73635254 -114.8898877 64.62114258 -115.73266602 64.50244141 C-118.07783585 63.98275157 -119.90743463 63.16310284 -122 62 C-120.85144531 62.0721875 -119.70289063 62.144375 -118.51953125 62.21875 C-85.10399541 64.25302192 -52.78889676 61.3818509 -26 39 C-25.00033203 38.21882813 -25.00033203 38.21882813 -23.98046875 37.421875 C-12.33535472 27.95878431 -4.44002805 14.19950999 0 0 Z " fill="#01A94C" transform="translate(301,91)"/>
<path d="M0 0 C0 0.66 0 1.32 0 2 C1.0828125 1.505 1.0828125 1.505 2.1875 1 C6.23988396 -0.44084763 8.94027493 -0.35324169 13 1 C15.19351823 0.86750298 15.19351823 0.86750298 17.5 0.5 C20.6351016 0.0401851 21.90737675 -0.03087442 25 1 C25.66 0.67 26.32 0.34 27 0 C28.99960012 -0.039992 31.00047242 -0.04346799 33 0 C34.73373319 3.46746638 33.95439447 7.43775195 33.83984375 11.25 C33.70276776 14.14596735 33.70276776 14.14596735 36 16 C35 17 35 17 31.625 17.0625 C30.42875 17.041875 29.2325 17.02125 28 17 C27.01 17 26.02 17 25 17 C22.66666667 17 20.33333333 17 18 17 C16.24252386 12.49646738 15.80705592 8.82360189 16 4 C13.525 3.505 13.525 3.505 11 3 C11.0928125 3.90621094 11.185625 4.81242188 11.28125 5.74609375 C11.86417254 15.58291169 11.86417254 15.58291169 9.25390625 19.86328125 C7.25830257 22.03674623 5.18617017 24.02181642 3 26 C2.67 26.66 2.34 27.32 2 28 C2.66 28.33 3.32 28.66 4 29 C2 31 2 31 -1.0625 31.1875 C-4 31 -4 31 -5 30 C-5.4375 27.875 -5.4375 27.875 -5 25 C-3.20239973 22.46868534 -1.15755687 20.22819118 1 18 C-1.31 17.34 -3.62 16.68 -6 16 C-6 11.71 -6 7.42 -6 3 C-6.66 3 -7.32 3 -8 3 C-8 2.34 -8 1.68 -8 1 C-5.07175348 0.02391783 -3.04386724 -0.08226668 0 0 Z M1 3 C1 6.96 1 10.92 1 15 C2.32 14.34 3.64 13.68 5 13 C5 10.03 5 7.06 5 4 C3.68 3.67 2.36 3.34 1 3 Z M23 3 C23 6.96 23 10.92 23 15 C24.32 14.67 25.64 14.34 27 14 C27 10.37 27 6.74 27 3 C25.68 3 24.36 3 23 3 Z " fill="#000000" transform="translate(525,170)"/>
<path d="M0 0 C1 1 1 1 1.0625 4.5625 C1.041875 5.696875 1.02125 6.83125 1 8 C2.65 8.33 4.3 8.66 6 9 C4.66666667 10.33333333 3.33333333 11.66666667 2 13 C3.7015625 12.9690625 3.7015625 12.9690625 5.4375 12.9375 C9 13 9 13 10 14 C10.08631874 15.34267413 10.10706473 16.68974322 10.09765625 18.03515625 C10.09443359 18.84404297 10.09121094 19.65292969 10.08789062 20.48632812 C10.07951172 21.33646484 10.07113281 22.18660156 10.0625 23.0625 C10.05798828 23.91650391 10.05347656 24.77050781 10.04882812 25.65039062 C10.03700373 27.76695663 10.01906769 29.88348685 10 32 C10.60328125 31.66226563 11.2065625 31.32453125 11.828125 30.9765625 C14.59892599 29.73069874 16.12984899 30.20273583 19 31 C19.33 32.98 19.66 34.96 20 37 C17.125 37.1875 17.125 37.1875 14 37 C13.34 36.01 12.68 35.02 12 34 C10.88625 34.20625 9.7725 34.4125 8.625 34.625 C7.42875 34.74875 6.2325 34.8725 5 35 C3 33 3 33 2.8046875 29.3046875 C2.817991 27.82799892 2.84185165 26.35137642 2.875 24.875 C2.88402344 24.12089844 2.89304687 23.36679688 2.90234375 22.58984375 C2.9259313 20.72642746 2.96180281 18.86317407 3 17 C1.02 17.33 -0.96 17.66 -3 18 C-3 22.62 -3 27.24 -3 32 C-2.01 32.33 -1.02 32.66 0 33 C-3.20808915 35.1387261 -4.27698497 35.47730962 -8 35 C-10.46620453 31.30069321 -10.40683016 28.23170935 -10.5625 23.9375 C-10.5720361 18.8122651 -10.5720361 18.8122651 -12 14 C-10 13 -10 13 -6.5625 13.1875 C-2.9502444 13.40265297 -2.9502444 13.40265297 -1.0625 11 C-0.711875 10.34 -0.36125 9.68 0 9 C-1.98 9 -3.96 9 -6 9 C-6.66 6.36 -7.32 3.72 -8 1 C-5.05549278 0.01849759 -3.06481021 -0.1613058 0 0 Z " fill="#000000" transform="translate(344,165)"/>
<path d="M0 0 C0 0.99 0 1.98 0 3 C0.61875 3.268125 1.2375 3.53625 1.875 3.8125 C4 5 4 5 6 8 C6.1953125 11.35546875 6.1953125 11.35546875 6.125 15.1875 C6.10695313 16.45980469 6.08890625 17.73210937 6.0703125 19.04296875 C6.04710937 20.01878906 6.02390625 20.99460938 6 22 C7.093125 21.79375 8.18625 21.5875 9.3125 21.375 C13 21 13 21 16 23 C16.40843923 25.71203652 16.13336867 28.2437142 16 31 C11.25 31.125 11.25 31.125 9 30 C7.2675 30.2475 7.2675 30.2475 5.5 30.5 C2 31 2 31 0 30 C-0.06058594 28.73542969 -0.12117188 27.47085938 -0.18359375 26.16796875 C-0.26800904 24.50780129 -0.35265655 22.84764563 -0.4375 21.1875 C-0.47681641 20.35412109 -0.51613281 19.52074219 -0.55664062 18.66210938 C-0.59853516 17.85966797 -0.64042969 17.05722656 -0.68359375 16.23046875 C-0.72025146 15.49207764 -0.75690918 14.75368652 -0.79467773 13.99291992 C-0.94842141 11.792505 -0.94842141 11.792505 -2 9 C-3.65 9 -5.3 9 -7 9 C-7 15.27 -7 21.54 -7 28 C-6.01 28.33 -5.02 28.66 -4 29 C-7.22373677 31.14915785 -8.26703674 31.38286803 -12 31 C-14 29 -14 29 -14.22705078 26.93701172 C-14.21657715 26.10959473 -14.20610352 25.28217773 -14.1953125 24.4296875 C-14.18886719 23.53378906 -14.18242187 22.63789063 -14.17578125 21.71484375 C-14.15902344 20.77769531 -14.14226562 19.84054688 -14.125 18.875 C-14.11597656 17.93011719 -14.10695313 16.98523438 -14.09765625 16.01171875 C-14.07404522 13.67422708 -14.04111516 11.33723877 -14 9 C-14.66 8.67 -15.32 8.34 -16 8 C-12.17010894 6.19769832 -9.21878192 5.80377759 -5 6 C-5.495 5.54625 -5.99 5.0925 -6.5 4.625 C-8 3 -8 3 -8 1 C-5.29120665 -0.35439668 -2.99066732 -0.06501451 0 0 Z M6 24 C6 25.32 6 26.64 6 28 C7.32 27.67 8.64 27.34 10 27 C10 26.01 10 25.02 10 24 C8.68 24 7.36 24 6 24 Z " fill="#000000" transform="translate(475,169)"/>
<path d="M0 0 C0.73283203 -0.00386719 1.46566406 -0.00773438 2.22070312 -0.01171875 C7.68413018 -0.00168491 7.68413018 -0.00168491 9.9375 1.125 C9.9375 2.445 9.9375 3.765 9.9375 5.125 C11.8865625 4.8465625 11.8865625 4.8465625 13.875 4.5625 C16.08984375 4.24609375 16.08984375 4.24609375 17.9375 4.125 C18.9375 5.125 18.9375 5.125 19 7.6875 C18.979375 8.491875 18.95875 9.29625 18.9375 10.125 C19.5975 10.455 20.2575 10.785 20.9375 11.125 C15.1875 12.25 15.1875 12.25 12.9375 11.125 C12.9375 9.805 12.9375 8.485 12.9375 7.125 C11.9475 7.125 10.9575 7.125 9.9375 7.125 C9.9375 9.105 9.9375 11.085 9.9375 13.125 C10.9275 13.455 11.9175 13.785 12.9375 14.125 C9.73369983 16.26086678 8.91810033 16.35632175 5.25 16.25 C4.44175781 16.23195312 3.63351562 16.21390625 2.80078125 16.1953125 C2.18589844 16.17210937 1.57101562 16.14890625 0.9375 16.125 C1.05097619 18.10486082 1.1785935 20.08391598 1.3125 22.0625 C1.38210938 23.16464844 1.45171875 24.26679688 1.5234375 25.40234375 C1.66007812 26.30082031 1.79671875 27.19929688 1.9375 28.125 C2.5975 28.455 3.2575 28.785 3.9375 29.125 C0.9375 31.125 0.9375 31.125 -2.25 30.75 C-3.178125 30.54375 -4.10625 30.3375 -5.0625 30.125 C-5.57255057 27.06469656 -6.07808052 24.01148481 -6.5 20.9375 C-6.91518609 17.93349191 -6.91518609 17.93349191 -9.0625 15.125 C-9.2578125 12.20703125 -9.2578125 12.20703125 -9.1875 8.9375 C-9.16945313 7.85082031 -9.15140625 6.76414063 -9.1328125 5.64453125 C-9.10960937 4.81308594 -9.08640625 3.98164063 -9.0625 3.125 C-9.7225 3.125 -10.3825 3.125 -11.0625 3.125 C-11.0625 2.465 -11.0625 1.805 -11.0625 1.125 C-7.3401599 -0.11578003 -3.87453967 -0.02055459 0 0 Z M-0.0625 2.125 C-2.33466848 3.96237827 -2.33466848 3.96237827 -2.2578125 6.7265625 C-2.23460937 7.72429687 -2.21140625 8.72203125 -2.1875 9.75 C-2.16945313 10.75289062 -2.15140625 11.75578125 -2.1328125 12.7890625 C-2.10960937 13.55992187 -2.08640625 14.33078125 -2.0625 15.125 C-0.4125 14.465 1.2375 13.805 2.9375 13.125 C2.9375 9.825 2.9375 6.525 2.9375 3.125 C1.9475 2.795 0.9575 2.465 -0.0625 2.125 Z " fill="#000000" transform="translate(398.0625,168.875)"/>
<path d="M0 0 C0 3.63 0 7.26 0 11 C1.32 10.34 2.64 9.68 4 9 C6.5625 8.625 6.5625 8.625 9 9 C10.97610386 11.04424538 12 12.1176825 12 15 C9.69 15 7.38 15 5 15 C4.67 14.34 4.34 13.68 4 13 C3.01 13 2.02 13 1 13 C0.67 15.97 0.34 18.94 0 22 C0.9075 21.79375 1.815 21.5875 2.75 21.375 C6.11027897 20.9872755 7.24075815 21.19588033 10 23 C10 25.31 10 27.62 10 30 C6.71303767 30.79953138 5.28976808 31.09658936 2 30 C-0.00109278 30.32670903 -2.00116131 30.65977214 -4 31 C-4.66 30.67 -5.32 30.34 -6 30 C-6.33 24.39 -6.66 18.78 -7 13 C-10.74275212 13.57125354 -10.74275212 13.57125354 -12 15 C-14.33297433 15.04092937 -16.66705225 15.04241723 -19 15 C-17.68 13.02 -16.36 11.04 -15 9 C-8.25 9.875 -8.25 9.875 -6 11 C-6.45822468 7.53058454 -6.89131683 4.32604951 -8 1 C-5.29120665 -0.35439668 -2.99066732 -0.06501451 0 0 Z M0 24 C0 25.32 0 26.64 0 28 C1.32 28 2.64 28 4 28 C4 26.68 4 25.36 4 24 C2.68 24 1.36 24 0 24 Z " fill="#000000" transform="translate(446,169)"/>
<path d="M0 0 C0 2.97 0 5.94 0 9 C0.66 8.67 1.32 8.34 2 8 C4.04055005 7.92934383 6.08334257 7.91578024 8.125 7.9375 C9.22070312 7.94652344 10.31640625 7.95554688 11.4453125 7.96484375 C12.28835938 7.97644531 13.13140625 7.98804688 14 8 C15.38226016 10.76452033 15.09525387 13.0461363 15.0625 16.125 C15.05347656 17.22070312 15.04445313 18.31640625 15.03515625 19.4453125 C15.02355469 20.28835937 15.01195312 21.13140625 15 22 C15.66 22.33 16.32 22.66 17 23 C16 24 16 24 12.4375 24.0625 C11.303125 24.041875 10.16875 24.02125 9 24 C7.67770811 21.35541621 7.90322806 19.32238699 7.9375 16.375 C7.94652344 15.37210938 7.95554687 14.36921875 7.96484375 13.3359375 C7.97644531 12.56507813 7.98804688 11.79421875 8 11 C6.02 11.33 4.04 11.66 2 12 C1.67 17.28 1.34 22.56 1 28 C1.99 28.33 2.98 28.66 4 29 C1 31 1 31 -2.1875 30.625 C-3.115625 30.41875 -4.04375 30.2125 -5 30 C-6.9742268 17.90786082 -6.9742268 17.90786082 -4.5 13.0625 C-3.7575 12.0415625 -3.7575 12.0415625 -3 11 C-3.99 10.67 -4.98 10.34 -6 10 C-6 7.69 -6 5.38 -6 3 C-6.66 3 -7.32 3 -8 3 C-8 2.34 -8 1.68 -8 1 C-5.07175348 0.02391783 -3.04386724 -0.08226668 0 0 Z " fill="#000000" transform="translate(500,169)"/>
<path d="M0 0 C0 1.65 0 3.3 0 5 C1.32 5 2.64 5 4 5 C4 7.97 4 10.94 4 14 C4.66 13.67 5.32 13.34 6 13 C11.3495935 12.49051491 11.3495935 12.49051491 14 13 C16 15.5 16 15.5 17 18 C14.1875 18.6875 14.1875 18.6875 11 19 C9.3125 17.5625 9.3125 17.5625 8 16 C7.01 16 6.02 16 5 16 C4.67 20.95 4.34 25.9 4 31 C5.485 31.495 5.485 31.495 7 32 C4 34 4 34 -2 33 C-2.33 27.72 -2.66 22.44 -3 17 C-6.85600009 16.73200663 -6.85600009 16.73200663 -9.5625 18.125 C-10.366875 18.41375 -11.17125 18.7025 -12 19 C-12.99 18.34 -13.98 17.68 -15 17 C-13.35 15.35 -11.7 13.7 -10 12 C-7.69 12.66 -5.38 13.32 -3 14 C-2.67 11.69 -2.34 9.38 -2 7 C-3.32 7 -4.64 7 -6 7 C-6.12375 6.38125 -6.2475 5.7625 -6.375 5.125 C-6.87197356 2.80879168 -6.87197356 2.80879168 -9 1 C-3.375 -1.125 -3.375 -1.125 0 0 Z " fill="#000000" transform="translate(371,166)"/>
<path d="M0 0 C2.46722859 3.70084288 2.65773904 6.7073873 2 11 C0.625 13.4375 0.625 13.4375 -2 15 C-6.16139792 15.93320385 -10.17242085 16.70094542 -14.23046875 15.14453125 C-16.838286 13.45779735 -17.26823823 11.99357086 -18 9 C-17.78884462 2.87649402 -17.78884462 2.87649402 -15.3125 0.125 C-9.8252194 -2.54448786 -5.64719791 -2.1719992 0 0 Z " fill="#000000" transform="translate(505,64)"/>
<path d="M0 0 C1.32 0 2.64 0 4 0 C4.99 2.64 5.98 5.28 7 8 C7.66 5.36 8.32 2.72 9 0 C10.32 0 11.64 0 13 0 C13.33 4.62 13.66 9.24 14 14 C13.34 14 12.68 14 12 14 C11.34 12.02 10.68 10.04 10 8 C9.34 9.98 8.68 11.96 8 14 C7.01 14 6.02 14 5 14 C4.34 12.35 3.68 10.7 3 9 C2.34 10.65 1.68 12.3 1 14 C0.34 14 -0.32 14 -1 14 C-1.08333357 9.1666528 -0.95261487 4.76307437 0 0 Z " fill="#000000" transform="translate(978,85)"/>
<path d="M0 0 C2.97 0 5.94 0 9 0 C9 0.66 9 1.32 9 2 C8.01 2 7.02 2 6 2 C6 5.96 6 9.92 6 14 C5.01 14 4.02 14 3 14 C3 10.04 3 6.08 3 2 C2.01 2 1.02 2 0 2 C0 1.34 0 0.68 0 0 Z " fill="#000000" transform="translate(966,85)"/>
</svg>
