<svg xmlns="http://www.w3.org/2000/svg" id="Layer_1" data-name="Layer 1" viewBox="0 0 170.02 142.94"><defs><style>.cls-1,.cls-12,.cls-13,.cls-14,.cls-15,.cls-16,.cls-17,.cls-18,.cls-19,.cls-20,.cls-21,.cls-22,.cls-23,.cls-24,.cls-6{fill:none;}.cls-2{fill:#00aa4d;}.cls-3{fill:#008ed3;}.cls-4{fill:#8bc53f;}.cls-5{fill:#00aa4e;}.cls-10,.cls-18,.cls-24,.cls-6,.cls-8,.cls-9{stroke:#fff;}.cls-6{stroke-linecap:round;stroke-linejoin:round;stroke-width:0;}.cls-11,.cls-27,.cls-7{fill:#fff;}.cls-8{fill:#cccaca;}.cls-10,.cls-11,.cls-12,.cls-13,.cls-14,.cls-15,.cls-16,.cls-17,.cls-18,.cls-19,.cls-20,.cls-21,.cls-22,.cls-23,.cls-24,.cls-8,.cls-9{stroke-miterlimit:10;}.cls-10,.cls-11,.cls-12,.cls-17,.cls-18,.cls-20,.cls-21,.cls-22,.cls-8,.cls-9{stroke-width:0.25px;}.cls-9{fill:#e5e5e5;}.cls-10{fill:#c1c1c1;}.cls-11{stroke:#cccaca;}.cls-12,.cls-13,.cls-14,.cls-15,.cls-16{stroke:#bcbec0;}.cls-13{stroke-width:0.1px;}.cls-14{stroke-width:0.2px;}.cls-15{stroke-width:0.05px;}.cls-16,.cls-19,.cls-23,.cls-24{stroke-width:0.15px;}.cls-17{stroke:#e8e9ea;}.cls-19{stroke:#cecece;}.cls-20{stroke:#e5e5e5;}.cls-21{stroke:#d8d8d8;}.cls-22{stroke:#d3d3d3;}.cls-23{stroke:#efefef;}.cls-25,.cls-27,.cls-29,.cls-30,.cls-32{font-size:1.6px;font-family:Gotham-Thin, Gotham;}.cls-25{fill:#414042;}.cls-26{letter-spacing:-0.02em;}.cls-28{letter-spacing:-0.08em;}.cls-29{fill:#939598;}.cls-30{fill:#58595b;}.cls-31{letter-spacing:-0.01em;}.cls-32{fill:#231f20;}.cls-33{letter-spacing:-0.01em;}.cls-34{letter-spacing:0em;}</style></defs><title>icon Establishment of ethio telecom</title><path class="cls-1" d="M19.7,96.84l.18.45Z"></path><path class="cls-1" d="M17.93,91.88c0,.05,0,.1,0,.15S17.94,91.93,17.93,91.88Z"></path><path class="cls-1" d="M25.35,106.73c.12.17.23.34.36.5C25.58,107.07,25.47,106.9,25.35,106.73Z"></path><path class="cls-1" d="M17.35,89.63c0,.21.09.41.14.62C17.44,90,17.4,89.84,17.35,89.63Z"></path><path class="cls-1" d="M22.22,101.92c.09.15.16.3.25.45C22.38,102.22,22.31,102.07,22.22,101.92Z"></path><path class="cls-1" d="M23.11,103.41c.12.2.24.41.37.6C23.35,103.82,23.23,103.61,23.11,103.41Z"></path><path class="cls-1" d="M20.2,98c.16.34.31.69.47,1C20.51,98.67,20.36,98.32,20.2,98Z"></path><path class="cls-1" d="M16.94,87.64c0,.27.09.54.14.81C17,88.18,17,87.91,16.94,87.64Z"></path><path class="cls-1" d="M18.28,93c.08.27.16.54.25.8C18.44,93.54,18.36,93.27,18.28,93Z"></path><path class="cls-1" d="M21.24,60c-.39.77-.75,1.54-1.1,2.32C20.49,61.52,20.85,60.75,21.24,60Z"></path><path class="cls-1" d="M16.63,85.7c0,.31.08.62.13.93C16.71,86.32,16.67,86,16.63,85.7Z"></path><path class="cls-1" d="M18.27,67.3a44.62,44.62,0,0,0-1.5,6.33A44.62,44.62,0,0,1,18.27,67.3Z"></path><path class="cls-1" d="M23.07,56.68c-.62,1-1.22,2.09-1.76,3.17C21.85,58.77,22.45,57.72,23.07,56.68Z"></path><path class="cls-1" d="M20.14,62.3c-.47,1.07-.89,2.15-1.27,3.22C19.25,64.45,19.67,63.37,20.14,62.3Z"></path><path class="cls-1" d="M16.44,84.05c0,.25,0,.5.07.75C16.48,84.55,16.47,84.3,16.44,84.05Z"></path><path class="cls-1" d="M16.74,73.88c-.09.54-.16,1.09-.22,1.63C16.58,75,16.65,74.42,16.74,73.88Z"></path><path class="cls-1" d="M16.26,79.55c0,1.14,0,2.28.09,3.41C16.27,81.83,16.25,80.69,16.26,79.55Z"></path><path class="cls-1" d="M26.23,107.91l.69.89Z"></path><path class="cls-1" d="M25.23,53.31h0c.48-.72,1-1.44,1.47-2.15C26.2,51.87,25.71,52.59,25.23,53.31Z"></path><path class="cls-1" d="M27.52,109.51c.23.28.45.56.69.83C28,110.07,27.75,109.79,27.52,109.51Z"></path><path class="cls-1" d="M33.57,115.78l.45.42Z"></path><path class="cls-1" d="M31,113.33c-.12-.11-.22-.22-.33-.34C30.77,113.11,30.87,113.22,31,113.33Z"></path><path class="cls-1" d="M31.69,114l.78.76Z"></path><path class="cls-1" d="M16.26,79.25c0-1.1.1-2.21.22-3.32C16.36,77,16.29,78.15,16.26,79.25Z"></path><path class="cls-2" d="M92.19,84.34a64.63,64.63,0,0,0,14.63,3.11c19.64,2.36,48.52-7.26,50.06-33.19C153.34,70.92,131.76,93.19,92.19,84.34Z"></path><path class="cls-3" d="M42,121.5c21,11.08,60.44,15.58,87.67-4.2C132,115.56,132.75,113,132,111a3.66,3.66,0,0,0-1.05-1.48c-1.37-1.21-3.74-1.7-7.06-.66-30.1,9.44-64.31-1.91-59.22-24.74a32.42,32.42,0,0,1,2.11-5.93,46.47,46.47,0,0,0-11.09.93A36.86,36.86,0,0,0,45.48,82.7a29,29,0,0,0-8.84,7.07,22.88,22.88,0,0,0-2.07,3h0l0,.07A22,22,0,0,0,31.71,106v.08a22.6,22.6,0,0,0,4.64,11.73l.44.54A48.37,48.37,0,0,0,42,121.5"></path><path class="cls-4" d="M145.48,27.64l-.23-.19a96.48,96.48,0,0,0-11.81-4.19C81.86,16.18,43.06,31.91,25.23,53.31h0c-.77,1.1-1.48,2.23-2.16,3.37s-1.22,2.09-1.76,3.17l-.07.13c-.39.77-.75,1.54-1.1,2.32-.47,1.07-.89,2.15-1.27,3.22-.22.59-.42,1.19-.6,1.78a44.62,44.62,0,0,0-1.5,6.33l0,.25c-.09.54-.16,1.09-.22,1.63,0,.14,0,.28,0,.42-.12,1.11-.19,2.22-.22,3.32v.3c0,1.14,0,2.28.09,3.41,0,.37.06.73.09,1.09s0,.5.07.75.08.6.12.9.08.62.13.93.12.67.18,1,.09.54.14.81.18.79.27,1.18c0,.21.09.41.14.62.13.54.28,1.09.44,1.63,0,.05,0,.1,0,.15.1.33.2.65.31,1s.16.54.25.8c.35,1,.75,2,1.17,3l.18.45c.11.23.22.46.32.69s.31.69.47,1c.48,1,1,1.95,1.55,2.91.09.15.16.3.25.45l.64,1c.12.2.24.41.37.6.58.92,1.21,1.83,1.87,2.72.12.17.23.34.36.5l.52.68.69.89.6.71c.23.28.45.56.69.83.78.9,1.6,1.78,2.45,2.65.11.12.21.23.33.34s.46.46.7.69l.78.76c.36.34.73.67,1.1,1l.45.42,1.16,1,.46.39c.4.29.79.53,1.16.78l-.44-.54a22.6,22.6,0,0,1-4.64-11.73V106a22,22,0,0,1,2.81-13.17l0-.07h0a22.88,22.88,0,0,1,2.07-3,29,29,0,0,1,8.84-7.07,36.86,36.86,0,0,1,10.17-3.54,46.47,46.47,0,0,1,11.09-.93c9.38.35,17.06,3.56,25.44,6.11h0c39.57,8.85,61.15-13.42,64.69-30.08h0A31.3,31.3,0,0,0,145.48,27.64Z"></path><polygon class="cls-2" points="35.64 117.58 35.64 117.58 35.64 117.58 35.64 117.58"></polygon><path class="cls-5" d="M33.57,115.78c-.37-.33-.74-.66-1.1-1l-.78-.76c-.24-.23-.48-.46-.7-.69s-.22-.22-.33-.34c-.85-.87-1.67-1.75-2.45-2.65-.24-.27-.46-.55-.69-.83l-.6-.71-.69-.89-.52-.68c-.13-.16-.24-.33-.36-.5-.66-.89-1.29-1.8-1.87-2.72-.13-.19-.25-.4-.37-.6l-.64-1c-.09-.15-.16-.3-.25-.45-.55-1-1.07-1.93-1.55-2.91-.16-.34-.31-.69-.47-1s-.21-.46-.32-.69l-.18-.45c-.42-1-.82-2-1.17-3-.09-.26-.17-.53-.25-.8s-.21-.64-.31-1c0,0,0-.1,0-.15-.16-.54-.31-1.09-.44-1.63,0-.21-.09-.41-.14-.62-.09-.39-.19-.79-.27-1.18s-.09-.54-.14-.81-.13-.67-.18-1-.09-.62-.13-.93-.09-.6-.12-.9,0-.5-.07-.75-.07-.72-.09-1.09c-.08-1.13-.1-2.27-.09-3.41v-.3c0-1.1.1-2.21.22-3.32,0-.14,0-.28,0-.42.06-.54.13-1.09.22-1.63l0-.25a44.62,44.62,0,0,1,1.5-6.33c.18-.59.38-1.19.6-1.78.38-1.07.8-2.15,1.27-3.22.35-.78.71-1.55,1.1-2.32l.07-.13c.54-1.08,1.14-2.13,1.76-3.17s1.39-2.27,2.16-3.37h0c.48-.72,1-1.44,1.47-2.15,20.69-29,63.92-39.9,105.32-28.31l1.42.41a96.48,96.48,0,0,1,11.81,4.19c-14.07-12-34.66-16.86-59-15.22-45.31,3-78.43,33.33-74,67.62a51.32,51.32,0,0,0,7.26,20.21A63.45,63.45,0,0,0,32.34,115c1,.85,2.2,1.78,3.3,2.58h0l-.46-.39-1.16-1Z"></path><line class="cls-6" x1="25.23" y1="53.31" x2="25.23" y2="53.31"></line><path class="cls-7" d="M26.7,51.16c-.5.71-1,1.43-1.47,2.15,17.83-21.4,56.63-37.13,108.21-30L132,22.85C90.62,11.26,47.39,22.12,26.7,51.16Z"></path><polygon class="cls-7" points="25.23 53.31 25.23 53.31 25.23 53.31 25.23 53.31 25.23 53.31 25.23 53.31"></polygon><path class="cls-1" d="M26,52.23q-.37.52-.72,1.08h0C25.47,52.94,25.71,52.58,26,52.23Z"></path><path class="cls-2" d="M92.19,84.34a64.63,64.63,0,0,0,14.63,3.11c19.64,2.36,48.52-7.26,50.06-33.19C153.34,70.92,131.76,93.19,92.19,84.34Z"></path><path class="cls-3" d="M132,111a3.7,3.7,0,0,0-1.05-1.47c-1.36-1.21-3.74-1.71-7.06-.66a73,73,0,0,1-13.41,2.84l9.5,11.4a65.16,65.16,0,0,0,9.75-5.84C132,115.56,132.76,113,132,111Z"></path><path class="cls-4" d="M157,51.83q0,1.22-.09,2.43c-3.55,16.65-25.13,38.93-64.7,30.08h0C90.07,83.69,88,83,86,82.34L47.17,35.79c20.75-11.36,50.42-17.45,86.27-12.54a95.59,95.59,0,0,1,11.82,4.2l.22.19A31.35,31.35,0,0,1,157,51.83Z"></path><polygon class="cls-2" points="35.64 117.58 35.64 117.58 35.64 117.58 35.64 117.58"></polygon><path class="cls-5" d="M145.26,27.45a95.59,95.59,0,0,0-11.82-4.2L132,22.84C100.57,14,68.08,18.19,45.2,33.43L39.92,27.1C52.44,18.86,68.4,13.42,86.26,12.22,110.6,10.58,131.18,15.41,145.26,27.45Z"></path><line class="cls-6" x1="25.23" y1="53.31" x2="25.23" y2="53.31"></line><path class="cls-7" d="M133.44,23.25c-35.85-4.91-65.52,1.18-86.27,12.54A75.63,75.63,0,0,0,25.24,53.31q.35-.56.72-1.08c.24-.36.49-.71.74-1.07A70.66,70.66,0,0,1,45.2,33.43C68.08,18.19,100.57,14,132,22.84Z"></path><path class="cls-8" d="M119.94,123.14C93.71,136,60.63,131.31,42,121.5a48.21,48.21,0,0,1-5.21-3.15c-.16-.17-.31-.35-.45-.53a22.6,22.6,0,0,1-4.64-11.73v0s0,0,0-.06a22.13,22.13,0,0,1,2.81-13.18.21.21,0,0,0,0-.06s0,0,0,0a22,22,0,0,1,2.08-3,28.89,28.89,0,0,1,8.83-7.06,36.86,36.86,0,0,1,10.17-3.54,46.55,46.55,0,0,1,11.09-.94,31.53,31.53,0,0,0-2.1,5.94c-4.35,19.47,19.9,30.59,45.8,27.58Z"></path><path class="cls-9" d="M86,82.34c-6.12-2-12.19-3.86-19.21-4.12a46.55,46.55,0,0,0-11.09.94A36.86,36.86,0,0,0,45.48,82.7a28.89,28.89,0,0,0-8.83,7.06,22,22,0,0,0-2.08,3s0,0,0,0a.21.21,0,0,1,0,.06A22.13,22.13,0,0,0,31.71,106s0,0,0,.06v0a22.6,22.6,0,0,0,4.64,11.73c.14.18.29.36.45.53-.37-.24-.77-.49-1.16-.77h0l-.06,0h0l-.38-.33c-.39-.33-.78-.65-1.16-1-.16-.13-.3-.27-.46-.41l-1.09-1c-.27-.25-.53-.51-.79-.77l-.7-.68-.33-.34c-.85-.87-1.67-1.75-2.45-2.65l-.69-.83c-.2-.24-.4-.47-.59-.71l-.69-.89c-.18-.23-.36-.45-.53-.68s-.24-.34-.36-.5c-.65-.9-1.28-1.8-1.87-2.72-.13-.2-.24-.4-.37-.6l-.64-1c-.08-.15-.16-.3-.25-.44-.55-1-1.07-1.94-1.54-2.92-.17-.34-.32-.68-.47-1s-.22-.46-.32-.69-.12-.3-.19-.45c-.42-1-.82-2-1.16-3-.09-.27-.17-.54-.26-.81s-.21-.64-.3-1c0,0,0-.11-.05-.16-.15-.54-.3-1.08-.44-1.63,0-.2-.09-.41-.14-.61-.09-.4-.18-.79-.26-1.19s-.1-.54-.15-.8-.13-.68-.18-1-.08-.62-.13-.93l-.12-.9L16.45,84c0-.36-.08-.72-.1-1.08-.08-1.13-.1-2.27-.08-3.42a2.8,2.8,0,0,1,0-.29c0-1.11.1-2.22.21-3.33,0-.14,0-.27,0-.41.06-.55.14-1.09.22-1.63l0-.25a44,44,0,0,1,1.5-6.33c.19-.6.39-1.19.6-1.79.38-1.07.8-2.14,1.27-3.21.35-.78.72-1.56,1.1-2.32l.07-.14c.55-1.07,1.14-2.13,1.76-3.17s1.4-2.26,2.16-3.36h0A75.63,75.63,0,0,1,47.17,35.79Z"></path><path class="cls-10" d="M35.19,117.18l.38.33c-1.08-.78-2.2-1.68-3.23-2.52a63.21,63.21,0,0,1-12.8-14.94,51.29,51.29,0,0,1-7.27-20.2C9.58,59.07,20.68,39.76,39.92,27.1l5.28,6.33A70.66,70.66,0,0,0,26.7,51.16c-.25.36-.5.71-.74,1.07s-.49.71-.73,1.08Q24.09,55,23.07,56.67c-.62,1-1.21,2.1-1.76,3.17l-.07.14c-.38.76-.75,1.54-1.1,2.32-.47,1.07-.89,2.14-1.27,3.21-.21.6-.41,1.19-.6,1.79a44,44,0,0,0-1.5,6.33l0,.25c-.08.54-.16,1.08-.22,1.63,0,.14,0,.27,0,.41-.11,1.11-.19,2.22-.21,3.33a2.8,2.8,0,0,0,0,.29c0,1.15,0,2.29.08,3.42,0,.36.06.72.1,1.08l.06.76.12.9c.05.31.08.62.13.93s.12.67.18,1,.09.53.15.8.17.79.26,1.19c0,.2.09.41.14.61.14.55.29,1.09.44,1.63,0,0,0,.11.05.16.09.32.2.64.3,1s.17.54.26.81c.34,1,.74,2,1.16,3,.07.15.12.3.19.45s.21.46.32.69.3.68.47,1c.47,1,1,2,1.54,2.92.09.14.17.29.25.44l.64,1c.13.2.24.4.37.6.59.92,1.22,1.82,1.87,2.72.12.16.23.33.36.5s.35.45.53.68l.69.89c.19.24.39.47.59.71l.69.83c.78.9,1.6,1.78,2.45,2.65l.33.34.7.68c.26.26.52.52.79.77l1.09,1c.16.14.3.28.46.41C34.41,116.53,34.8,116.85,35.19,117.18Z"></path><line class="cls-11" x1="47.17" y1="35.79" x2="45.2" y2="33.43"></line><line class="cls-11" x1="131.02" y1="136.45" x2="119.94" y2="123.14"></line><line class="cls-11" x1="110.44" y1="111.74" x2="85.95" y2="82.34"></line><line class="cls-11" x1="39.92" y1="27.1" x2="30.66" y2="15.99"></line><line class="cls-12" x1="93.99" y1="104.84" x2="113.88" y2="128.71"></line><line class="cls-13" x1="21.86" y1="18.28" x2="79.79" y2="87.8"></line><line class="cls-12" x1="84.74" y1="108.14" x2="110.78" y2="139.4"></line><polyline class="cls-13" points="10.23 18.73 43.52 58.67 77.13 99"></polyline><polyline class="cls-14" points="8.41 30.95 27.57 53.95 30.66 57.65 34.9 62.74 99.15 139.84"></polyline><polyline class="cls-15" points="9.9 29.46 29.06 52.46 32.15 56.16 36.39 61.25 100.64 138.35"></polyline><polyline class="cls-15" points="3.25 36.58 22.41 59.57 25.5 63.28 29.74 68.37 93.99 145.47"></polyline><polyline class="cls-15" points="-3.41 43.7 15.76 66.69 18.84 70.4 23.09 75.49 87.34 152.59"></polyline><polyline class="cls-15" points="-10.06 50.82 9.1 73.81 12.19 77.52 16.43 82.61 80.68 159.7"></polyline><polyline class="cls-15" points="-16.71 57.94 2.45 80.93 5.54 84.63 9.78 89.72 74.03 166.82"></polyline><polyline class="cls-15" points="-23.36 65.05 -4.2 88.05 -1.11 91.75 3.13 96.84 67.38 173.94"></polyline><polyline class="cls-15" points="15.79 22.41 34.96 45.41 38.04 49.11 42.29 54.2 106.54 131.3"></polyline><polyline class="cls-15" points="21.69 15.36 40.85 38.35 43.94 42.06 48.18 47.15 112.43 124.25"></polyline><polyline class="cls-15" points="27.58 8.31 46.74 31.3 49.83 35.01 54.07 40.1 118.32 117.2"></polyline><line class="cls-13" x1="4.5" y1="40.67" x2="87.37" y2="140.11"></line><line class="cls-12" x1="2.73" y1="52.74" x2="76.75" y2="141.76"></line><line class="cls-13" x1="2.84" y1="67.3" x2="64.29" y2="141.22"></line><line class="cls-16" x1="3.35" y1="82.34" x2="49.6" y2="138"></line><line class="cls-13" x1="2.33" y1="95.56" x2="36.03" y2="136.11"></line><line class="cls-12" x1="5.86" y1="46.71" x2="43.31" y2="15.2"></line><line class="cls-17" x1="10.9" y1="56.25" x2="49.96" y2="23.7"></line><polyline class="cls-18" points="9.16 71.16 42.66 43.24 57.06 31.24"></polyline><line class="cls-19" x1="4.56" y1="88.45" x2="61.3" y2="41.16"></line><polyline class="cls-20" points="45.81 67.52 48.81 65.02 62.21 53.85 69.27 47.97"></polyline><line class="cls-12" x1="2.74" y1="103.41" x2="32.47" y2="78.63"></line><polyline class="cls-21" points="14.6 106.99 48.34 78.87 68.83 61.79 78.16 54.02"></polyline><polyline class="cls-22" points="7.55 126.31 62.04 80.9 75.44 69.73 79.78 66.11"></polyline><polyline class="cls-23" points="19.18 130.07 47.44 106.52 54.49 100.65 61.57 94.75 82.06 77.67 88.12 72.62"></polyline><polyline class="cls-24" points="35.64 129.81 90.74 83.89 99.81 76.33"></polyline><line class="cls-12" x1="37.9" y1="141.38" x2="102.65" y2="87.42"></line><line class="cls-12" x1="63.46" y1="133.53" x2="114.73" y2="90.8"></line><line class="cls-20" x1="70.98" y1="140.72" x2="119.37" y2="100.4"></line><line class="cls-21" x1="91.53" y1="137.05" x2="122.41" y2="111.32"></line><line class="cls-12" x1="104.17" y1="139.97" x2="131.2" y2="117.44"></line><text class="cls-25" transform="translate(35.92 20.79) rotate(-40.02)">(<tspan class="cls-26" x="0.62" y="0">0,</tspan><tspan x="1.95" y="0">0)</tspan></text><text class="cls-27" transform="translate(51.48 74.86) rotate(-40.02)">(1,3)</text><text class="cls-27" transform="translate(40.65 97.29) rotate(-40.02)">(<tspan class="cls-28" x="0.62" y="0">7</tspan><tspan x="1.35" y="0">,b2)</tspan></text><text class="cls-29" transform="translate(23.79 34.61) rotate(-40.02)">(a<tspan class="cls-26" x="1.53" y="0">,</tspan><tspan x="1.76" y="0">0)</tspan></text><text class="cls-30" transform="translate(10.04 55.61) rotate(-40.02)">(a<tspan class="cls-31" x="1.53" y="0">b,</tspan><tspan x="2.8" y="0">4)</tspan></text><text class="cls-27" transform="translate(54.88 124.18) rotate(-40.02)">(a<tspan class="cls-31" x="1.53" y="0">b,</tspan><tspan x="2.8" y="0">4)</tspan></text><text class="cls-32" transform="translate(6.88 84.4) rotate(-40.02)">(8<tspan class="cls-33" x="1.62" y="0">,</tspan><tspan class="cls-34" x="1.87" y="0">4)</tspan></text><text class="cls-27" transform="translate(77.21 120.82) rotate(-40.02)">(8<tspan class="cls-33" x="1.62" y="0">,</tspan><tspan class="cls-34" x="1.87" y="0">4)</tspan></text></svg>